<svg xmlns="http://www.w3.org/2000/svg" viewBox="0 0 213.21 212.8"><title>desWeb</title><g id="Layer_2" data-name="Layer 2"><g id="Layer_1-2" data-name="Layer 1"><path d="M213.21,11.25V164.91a13,13,0,0,0-.39,1.58,12.7,12.7,0,0,1-7,10.17c-2.08,1.07-3.59,1.89-3.91,4.66-.34,3-3,4.39-6.38,4.39q-27.54,0-55.09,0c-1.42,0-2,.31-1.89,1.81.06,1.34.06,2.23,1.84,2.1,2.28-.17,4.57-.08,6.86,0,7.28.14,12.05,4.93,12.16,12.19,0,1.25-.09,2.51,0,3.75.29,3.07-.61,5.57-3.29,7.29H56.63c-1.72-1.54-3.22-3.13-3-5.74.17-2.28,0-4.58.14-6.86a11.15,11.15,0,0,1,9.43-10.36c3.18-.52,6.37-.25,9.56-.24,1.4,0,1.81-.47,1.74-1.8-.09-1.87,0-3.75,0-5.62,0-3.63,0-3.63-3.6-3.63-8.54,0-17.07,0-25.61,0-2.42,0-3.89-1.27-3.93-3.14s1.45-3.13,3.82-3.26c.56,0,1.11,0,1.67,0H95.92c4.37,0,8.75-.07,13.11,0,1.67,0,2.42-.3,2.24-2.13a40.26,40.26,0,0,1,0-4.79c0-4.5,2.41-6.89,6.92-7,.53,0,1.37.29,1.55-.23a9.15,9.15,0,0,0,.12-4.5c-.22-1.24-1.52-.61-2.3-.61q-54.44,0-108.88,0a9,9,0,0,1-1,0c-1.12-.14-1.41.39-1.4,1.44,0,3.19,0,6.38,0,9.58,0,5.17,3,8.15,8.09,8.22,3.33,0,6.66,0,10,0a4.49,4.49,0,0,1,3,.73,2.88,2.88,0,0,1,1.16,3.28,3.31,3.31,0,0,1-3.51,2.38c-3.67.06-7.36.18-11,0C5.3,178,0,172.37,0,163.82V14.55a15.5,15.5,0,0,1,.3-3.72C2,4,7.25,0,14.64,0H167.23c10.62,0,21.24,0,31.86,0a14.07,14.07,0,0,1,9.83,3.78C211.18,5.8,212.18,8.53,213.21,11.25ZM106.47,42.47q-49,0-98,0c-1.62,0-2.24.24-2.23,2.09q.09,50.07,0,100.14c0,1.49.29,2,1.91,2q50.7-.07,101.38,0c1.46,0,1.89-.4,1.86-1.86-.11-4.65-.12-9.3-.1-13.95a6.35,6.35,0,0,1,5-6.5c1.2-.32,2.93.59,3.53-.79.48-1.12,0-2.61.15-3.92s-.32-1.87-1.81-1.88c-4.49,0-6.89-2.56-6.91-7,0-4.24,0-8.47,0-12.7,0-5.57,2.21-7.76,7.84-7.76h38.31a19.35,19.35,0,0,1,2.28.12,2.85,2.85,0,0,1,2.6,2.8,2.93,2.93,0,0,1-2,3.09,6.54,6.54,0,0,1-2.67.31c-12.7,0-25.4,0-38.09,0-1.57,0-2,.42-2,2,.11,3.46.16,6.94,0,10.4-.1,2.06.57,2.53,2.56,2.53,17.56-.08,35.11,0,52.67,0,7.15,0,14.29,0,21.44,0,1.57,0,2-.44,2-2-.11-3.68-.1-7.36,0-11,0-1.45-.38-1.89-1.85-1.86-5.06.08-10.13.06-15.2,0-2.21,0-3.68-1.37-3.67-3.17s1.36-3.08,3.48-3.1c5.83,0,11.66-.1,17.48,0,3.65.09,5.94,2.67,6,6.38q.06,7.29,0,14.58a6.24,6.24,0,0,1-5.76,6.47c-2.87.36-2.87.36-2.87,3.36a10.26,10.26,0,0,1,0,1.24c-.21,1.48.43,1.84,1.86,1.87,4.42.08,6.77,2.54,6.78,6.91,0,4.58,0,9.16,0,13.74,0,.58-.3,1.29.42,1.68a2.56,2.56,0,0,0,3.87-2.2q0-49.75,0-99.5c0-1.84-.39-2.43-2.35-2.42Q155.39,42.53,106.47,42.47Zm.13-6.25q48.92,0,97.85,0c1.67,0,2.26-.33,2.23-2.13-.12-6.52,0-13-.05-19.57,0-5.38-3-8.3-8.43-8.3H15c-5.51,0-8.42,2.94-8.43,8.51,0,6.39.08,12.77-.06,19.15,0,2,.63,2.35,2.45,2.35Q57.77,36.17,106.6,36.22Zm-.15,170.44H148.5c4.67,0,4.61,0,4.58-4.76,0-2.53-.91-4.47-3.25-5.56a8.5,8.5,0,0,0-3.69-.4c-25.95,0-51.9.08-77.84-.06-6.24,0-8.79,1.24-8.45,8.49.09,2,.68,2.33,2.47,2.32C77,206.63,91.74,206.66,106.45,206.66Zm50.31-42.16c-12.41,0-24.82,0-37.23,0-1.53,0-2,.36-2,1.95.12,3.81.08,7.62,0,11.44,0,1.27.39,1.65,1.66,1.64q37.65,0,75.29,0c1.27,0,1.68-.33,1.65-1.63-.08-3.74-.12-7.49,0-11.23.06-1.73-.44-2.19-2.17-2.18C181.58,164.53,169.17,164.5,156.76,164.5Zm0-19.12c12.48,0,25,0,37.44,0,1.56,0,2-.4,2-2-.12-3.54-.13-7.08,0-10.61.07-1.8-.41-2.35-2.27-2.33-11,.09-21.91,0-32.87,0-13.8,0-27.59,0-41.39,0-1.64,0-2.16.47-2.11,2.11.12,3.53.14,7.08,0,10.61-.07,1.76.51,2.18,2.21,2.17C132.07,145.35,144.41,145.38,156.75,145.38Zm-50.43,44.18c8.12,0,16.23,0,24.35,0,1.61,0,1.59-.82,1.58-1.94s.15-2-1.54-2c-4.16.12-8.32,0-12.48,0s-6.36-1.88-6.94-5.89c-.14-1-.39-1.3-1.37-1.3q-13.94,0-27.88,0c-1,0-1.33.34-1.31,1.32,0,2.64.1,5.28,0,7.91-.07,1.51.48,1.83,1.89,1.82C90.51,189.53,98.41,189.56,106.32,189.56Zm50.23-31.31h27c3.85,0,3.73,0,3.89-3.93.09-2-.39-2.67-2.57-2.66-18,.1-36.05.06-54.07.06-4.71,0-4.64,0-4.71,4.61,0,1.53.35,2,1.94,2C137.55,158.21,147.05,158.25,156.55,158.25Zm.14-34.08h26.64c4.11,0,4,0,4.14-4.13.06-1.8-.39-2.31-2.26-2.3-18.25.07-36.5,0-54.75,0-4.32,0-4.25,0-4.34,4.34,0,1.6.37,2.1,2,2.09C137.67,124.13,147.18,124.17,156.69,124.17Zm45.67,47.2c2.64-1.44,4.07-3.31,4.18-5.89.15-3.74,0-7.48.11-11.22,0-1.1-.41-1.42-1.47-1.4-2.83,0-5.67,0-8.51,0-3.31,0-2.8-.45-3,3-.09,1.88.45,2.46,2.38,2.41,3.7-.09,6.22,2.54,6.29,6.24C202.39,166.69,202.36,168.83,202.36,171.37Z"/><path d="M127.85,62h30.78a15.86,15.86,0,0,1,2.49.12,2.8,2.8,0,0,1,2.5,2.64,2.93,2.93,0,0,1-1.81,3.19,5.84,5.84,0,0,1-2.65.35H96.34a14,14,0,0,1-1.45,0,3.29,3.29,0,0,1-3.2-3.2A3.12,3.12,0,0,1,95,62c5.82-.06,11.65,0,17.47,0Z"/><path d="M69.86,90.65H86.5a13.37,13.37,0,0,1,2.28.14,2.76,2.76,0,0,1,2.43,2.69,2.9,2.9,0,0,1-1.86,3.15A5.81,5.81,0,0,1,86.9,97H52.57a8.24,8.24,0,0,1-2-.18,2.91,2.91,0,0,1-2.37-3.21,2.83,2.83,0,0,1,2.78-2.83A20.48,20.48,0,0,1,53,90.66Z"/><path d="M26.85,78.64a4.07,4.07,0,0,1-2.73-1.36c-3-3-6-6-9-9-1.8-1.85-1.81-3.38,0-5.25,3-3,6-6,9-9,1.6-1.56,3.51-1.66,4.8-.39s1.32,3.13-.42,4.93c-2,2-4,4.07-6,6-.88.82-.83,1.33,0,2.13,2.16,2.06,4.26,4.18,6.33,6.32a3,3,0,0,1,.8,3.6A3.42,3.42,0,0,1,26.85,78.64Z"/><path d="M63,65.26a4,4,0,0,1-1.32,3.15c-3,2.94-5.86,5.9-8.83,8.82-1.8,1.75-3.52,1.86-4.93.41s-1.16-3.19.54-4.94c1.93-2,3.87-4,5.89-5.87.89-.84,1-1.35,0-2.26-2-1.87-4-3.88-5.9-5.86-1.74-1.78-1.93-3.51-.58-4.92s3.21-1.29,4.92.38c3,2.91,5.89,5.87,8.83,8.82A3.54,3.54,0,0,1,63,65.26Z"/><path d="M89.82,116.84c4,0,7.9,0,11.85,0,.63,0,1.25,0,1.87.06,1.81.17,3,1,3.08,3a3,3,0,0,1-3.06,3.26c-1.93.14-3.87,0-5.81,0h-20a11.53,11.53,0,0,1-1.86-.06A3.25,3.25,0,0,1,73,119.91a3,3,0,0,1,3.12-3c2.21-.08,4.43-.06,6.65-.07S87.46,116.84,89.82,116.84Z"/><path d="M52,110.1H40.33a15.64,15.64,0,0,1-2.27-.15,2.81,2.81,0,0,1-2.5-2.66,2.86,2.86,0,0,1,1.85-3.15,4.71,4.71,0,0,1,1.81-.36c8.52,0,17,0,25.55,0a3.85,3.85,0,0,1,2.53.76,2.91,2.91,0,0,1,1.08,3.31,3,3,0,0,1-3.12,2.23c-4.44,0-8.87,0-13.3,0Z"/><path d="M137.2,82c-4.22,0-8.45.05-12.68,0-2.77,0-4.37-2.14-3.43-4.33A3,3,0,0,1,124,75.72c8.8,0,17.6,0,26.41,0a3,3,0,0,1,3.23,3A3.1,3.1,0,0,1,150.3,82C145.94,82,141.57,82,137.2,82Z"/><path d="M83.29,82c-3.6,0-7.19.05-10.79,0-2.73,0-4.29-2.16-3.35-4.37a3.1,3.1,0,0,1,3.16-1.9c7.27,0,14.54,0,21.8,0,2.17,0,3.38,1.24,3.37,3.1S96.2,81.93,94.09,82C90.49,82,86.89,82,83.29,82Z"/><path d="M35.09,78.63a3.11,3.11,0,0,1-3.09-4,50.46,50.46,0,0,1,1.77-4.86c1.89-4.82,3.78-9.65,5.72-14.45.91-2.25,2.57-3.06,4.38-2.29s2.27,2.49,1.46,4.59C43,63.77,40.53,69.87,38.14,76A3.61,3.61,0,0,1,35.09,78.63Z"/><path d="M177.2,107.08c-3.26,0-6.52,0-9.77,0-2.44,0-3.81-1.21-3.76-3.17s1.44-3.08,3.88-3.09q9.87,0,19.74,0c2.36,0,3.83,1.31,3.8,3.22s-1.44,3-3.71,3C184,107.11,180.59,107.08,177.2,107.08Z"/><path d="M55,116.84c3.19,0,6.38,0,9.57,0,2.58,0,4.09,1.25,4.08,3.16s-1.56,3.18-4.1,3.19q-9.68,0-19.34,0a3.47,3.47,0,0,1-3.65-2.2,2.93,2.93,0,0,1,.94-3.37,4,4,0,0,1,2.93-.78C48.58,116.82,51.77,116.84,55,116.84Z"/><path d="M29.36,90.65c3.19,0,6.38,0,9.57,0,2.53,0,3.87,1.11,3.93,3S41.47,97,38.92,97q-9.68,0-19.34,0c-2.42,0-3.89-1.2-3.95-3.08s1.34-3.19,4-3.23C22.84,90.62,26.1,90.65,29.36,90.65Z"/><path d="M26.82,123.2c-2.43,0-4.86,0-7.28,0s-3.87-1.25-3.9-3.14,1.32-3.17,3.78-3.2q7.38-.09,14.76,0c2.53,0,3.79,1.18,3.76,3.19s-1.39,3.1-3.84,3.15S29.24,123.2,26.82,123.2Z"/><path d="M133.05,107.07c-2.36,0-4.72.05-7.08,0-2.08-.06-3.47-1.38-3.44-3.13a3.27,3.27,0,0,1,3.52-3.11q7.19-.07,14.36,0a3.14,3.14,0,0,1,3.38,3.18c0,1.84-1.28,3-3.46,3C137.9,107.12,135.47,107.08,133.05,107.07Z"/><path d="M77.31,62c1.8,0,3.6-.05,5.39,0a2.89,2.89,0,0,1,3.11,2.92,3,3,0,0,1-3,3.28c-3.66.11-7.33.11-11,0a3.15,3.15,0,0,1-3-3.15,3.07,3.07,0,0,1,3.07-3c1.79-.09,3.59,0,5.39,0Z"/><path d="M97.23,110.06c-1.66,0-3.33.08-5,0-2.08-.12-3.19-1.26-3.18-3.08A2.88,2.88,0,0,1,92,103.83c3.46-.16,6.93-.15,10.39,0a2.94,2.94,0,0,1,3,3.31c-.13,1.93-1.33,2.77-3.14,2.93-.14,0-.27,0-.41,0H97.23Z"/><path d="M109.35,75.74c1.59,0,3.19-.07,4.77,0A2.8,2.8,0,0,1,117,78.67a2.75,2.75,0,0,1-2.6,3.18,89.44,89.44,0,0,1-10,0,2.91,2.91,0,0,1-2.76-3.12,3.11,3.11,0,0,1,3.09-3,2.73,2.73,0,0,1,.41,0h4.16Z"/><path d="M23.22,110c-1.52,0-3,.06-4.57,0a2.86,2.86,0,0,1-3-2.87,2.79,2.79,0,0,1,2.56-3.23,46,46,0,0,1,10,0,2.79,2.79,0,0,1,2.57,3.23,2.87,2.87,0,0,1-3,2.86C26.27,110.1,24.74,110,23.22,110Z"/><path d="M79.36,110.15c-1-.06-2.07-.05-3.09-.2a2.75,2.75,0,0,1-2.56-2.77,2.69,2.69,0,0,1,2.12-3.13,16.05,16.05,0,0,1,7.36,0,2.71,2.71,0,0,1,2.1,3.15A2.81,2.81,0,0,1,82.67,110C81.57,110.09,80.47,110.09,79.36,110.15Z"/><path d="M153.74,107.05c-.83,0-1.66,0-2.48,0a2.89,2.89,0,0,1-3-2.8,3,3,0,0,1,2.68-3.35,30.59,30.59,0,0,1,5.58,0,3.08,3.08,0,0,1-.28,6.15C155.4,107.1,154.57,107.05,153.74,107.05Z"/><path d="M69.57,12a9,9,0,0,1,9.18,9,9.2,9.2,0,0,1-9.16,9.33,9.39,9.39,0,0,1-9.16-9.2A9.2,9.2,0,0,1,69.57,12Zm2.9,9.18A2.84,2.84,0,1,0,69.68,24,2.83,2.83,0,0,0,72.47,21.19Z"/><path d="M55.45,21.13a9.24,9.24,0,0,1-9.07,9.22A9.41,9.41,0,0,1,37.11,21a9.23,9.23,0,0,1,9.25-9A9.07,9.07,0,0,1,55.45,21.13Zm-6.3,0a2.89,2.89,0,0,0-2.95-2.81A2.82,2.82,0,0,0,46.45,24,2.84,2.84,0,0,0,49.15,21.12Z"/><path d="M32.13,21.15A9.21,9.21,0,0,1,23,30.35,9.39,9.39,0,0,1,13.8,21a9.22,9.22,0,0,1,9.27-9A9,9,0,0,1,32.13,21.15Zm-6.3,0a2.82,2.82,0,1,0-5.64,0,2.82,2.82,0,1,0,5.64,0Z"/><path d="M177.33,175.18c-3.26,0-6.51,0-9.77,0-1.78,0-3.33-.54-3.83-2.5-.54-2.17,1.11-3.85,3.89-3.88,4.85,0,9.7,0,14.55,0,1.67,0,3.33,0,5,0,2.44.07,3.88,1.25,3.93,3.12s-1.45,3.22-4,3.26C183.84,175.22,180.58,175.18,177.33,175.18Z"/><path d="M133.22,175.18c-2.29,0-4.58.06-6.87,0s-3.86-1.4-3.81-3.25,1.47-3.08,3.75-3.11c4.58-.07,9.16-.06,13.74,0,2.44,0,3.79,1.3,3.75,3.25s-1.34,3-3.69,3.11S135.51,175.18,133.22,175.18Z"/><path d="M153.63,175.24A26.43,26.43,0,0,1,151,175a3.08,3.08,0,0,1,.07-6.12,18.57,18.57,0,0,1,5.57,0,3.07,3.07,0,0,1-.07,6.09C155.58,175.17,154.61,175.18,153.63,175.24Z"/><path d="M177.34,134.87c3.32,0,6.65,0,10,0,2.38,0,3.84,1.29,3.78,3.18s-1.46,3.06-3.73,3.07q-10,0-20,0c-2.39,0-3.78-1.27-3.74-3.23s1.34-3,3.69-3C170.69,134.85,174,134.87,177.34,134.87Z"/><path d="M133.24,141.14c-2.36,0-4.72,0-7.07,0s-3.67-1.38-3.63-3.2,1.4-3,3.52-3q7.19-.06,14.36,0c2.11,0,3.4,1.3,3.38,3.13s-1.38,3-3.48,3.1C138,141.19,135.6,141.14,133.24,141.14Z"/><path d="M153.58,141.11a20.67,20.67,0,0,1-2.49,0,3.05,3.05,0,0,1-2.85-3.22,3,3,0,0,1,3.06-3c1.58-.07,3.18-.07,4.76,0a3.06,3.06,0,0,1,3.22,3.07,3.23,3.23,0,0,1-3.22,3.14c-.82.07-1.65,0-2.48,0Z"/></g></g></svg>