<svg xmlns="http://www.w3.org/2000/svg" viewBox="0 0 217.66 220.22"><defs><style>.cls-1{fill:none;stroke:#000;stroke-miterlimit:10;stroke-width:4.25px;}</style></defs><title>industrial_3</title><g id="Layer_2" data-name="Layer 2"><g id="Layer_1-2" data-name="Layer 1"><path class="cls-1" d="M107.88,33.66c-45.67,0-57.17-31.5-66.43-31.5-18,0,14,116,8.67,114.5C36.9,113,21.83,84.2,2.7,92.16c-3,1.25,6.49,24.47,10,25.5s20.75.67,28.75,4,30.8,20.67,68.13,20.67h0c37.34,0,58.67-17.33,66.67-20.67s25.24-3,28.75-4,13-24.25,10-25.5c-19.12-8-34.19,20.79-47.42,24.5-5.33,1.5,26.55-112.35,8.67-114.5-11-1.32-22.67,31.5-68.33,31.5"/><line class="cls-1" x1="107.96" y1="141.34" x2="107.46" y2="34.84"/><path d="M41.38,120.59s.16-1.66,3.66-4,14.67,7,23.34,12,21.33,12.84,40.66,12,32-7.16,38.17-11.16,16.83-13.17,19-12.67,5-1.5,7.67,2.17-20.42,21.81-64.3,23.4S41.38,120.59,41.38,120.59Z"/><path class="cls-1" d="M37.83,39.66s2.38,64.43,3.13,67.68,10.75,14,10.75,14"/><path class="cls-1" d="M179.71,39.66s-2.38,64.43-3.13,67.68-10.75,14-10.75,14"/><path class="cls-1" d="M15.54,118.93c5,17,16.67,58.33,27,84.79,4.29,11,11.11,14.37,16.38,14.37,5.71,0,10.07-3.47,13.83-7.37l97.17-85.79"/><path class="cls-1" d="M41.38,122.43c0,23.16,1.5,56.66,3.83,79.91.55,5.46,6.89,13.42,13.42,13.42,7.21,0,10.75-7.08,13.4-12.84l28.51-60.83"/><path class="cls-1" d="M202.21,118.59c-5,17-16.67,58.34-27,84.79-4.29,11-11.11,14.38-16.37,14.38-5.72,0-10.08-3.48-13.84-7.38L47.88,124.59"/><path class="cls-1" d="M176.38,122.09c0,23.17-1.5,56.67-3.84,79.92-.55,5.46-6.89,13.42-13.41,13.42-7.22,0-10.75-7.09-13.41-12.84l-28.51-60.83"/></g></g></svg>