<svg xmlns="http://www.w3.org/2000/svg" viewBox="0 0 273.62 218.34"><defs><style>.cls-1{fill:none;stroke:#231f20;stroke-miterlimit:10;stroke-width:5.13px;}</style></defs><title>mobiliario</title><g id="Layer_2" data-name="Layer 2"><g id="Layer_1-2" data-name="Layer 1"><rect class="cls-1" x="94.51" y="2.57" width="86.91" height="78.31"/><rect class="cls-1" x="121.9" y="64.13" width="32.14" height="6.34"/><rect class="cls-1" x="3.53" y="137.46" width="86.91" height="78.31" transform="translate(93.97 353.23) rotate(180)"/><rect class="cls-1" x="13.49" y="157.83" width="66.99" height="6.34" transform="translate(93.97 322) rotate(180)"/><rect class="cls-1" x="17.22" y="168.13" width="59.53" height="38.7" transform="translate(93.97 374.96) rotate(180)"/><circle class="cls-1" cx="23.56" cy="147.76" r="4.53"/><circle class="cls-1" cx="70.07" cy="147.76" r="4.53"/><rect class="cls-1" x="93.16" y="137.46" width="86.91" height="25.24" transform="translate(273.22 300.16) rotate(180)"/><rect class="cls-1" x="120.54" y="147.87" width="32.14" height="6.34" transform="translate(273.22 302.08) rotate(180)"/><rect class="cls-1" x="93.16" y="164.17" width="86.91" height="25.24" transform="translate(273.22 353.57) rotate(180)"/><rect class="cls-1" x="120.54" y="174.58" width="32.14" height="6.34" transform="translate(273.22 355.49) rotate(180)"/><rect class="cls-1" x="93.16" y="190.54" width="86.91" height="25.24" transform="translate(273.22 406.31) rotate(180)"/><rect class="cls-1" x="120.54" y="200.95" width="32.14" height="6.34" transform="translate(273.22 408.23) rotate(180)"/><rect class="cls-1" x="184.14" y="127.28" width="86.91" height="88.5" transform="translate(455.2 343.05) rotate(180)"/><rect class="cls-1" x="233.48" y="139.72" width="32.14" height="6.34" transform="translate(499.1 285.78) rotate(180)"/><rect class="cls-1" x="184.14" y="3.02" width="86.91" height="118.15" transform="translate(455.2 124.18) rotate(180)"/><rect class="cls-1" x="233.71" y="103.28" width="32.14" height="6.34" transform="translate(499.56 212.91) rotate(180)"/><path class="cls-1" d="M32.5,3.32H60.56V56.89S89.23,78.63,89.23,80.73H4c-9,0,28.22-22.64,28.22-22.64Z"/></g></g></svg>