<svg xmlns="http://www.w3.org/2000/svg" viewBox="0 0 213.21 209.61"><title>uxui</title><g id="Layer_2" data-name="Layer 2"><g id="Layer_1-2" data-name="Layer 1"><path d="M213.21,26.5V160.59c-.52.37-.43,1-.62,1.5a11.51,11.51,0,0,1-9,7.52,18.76,18.76,0,0,1-3.52.12c-8.05,0-16.1,0-24.15,0a3.12,3.12,0,1,1-.09-6.22c.56,0,1.11,0,1.67,0,7.77,0,15.54,0,23.32,0,4.07,0,6.09-2.08,6.12-6.18,0-1.8,0-3.6,0-5.41,0-3.2.49-2.83-2.9-2.83H9.19c-.56,0-1.11,0-1.66,0-1-.08-1.34.36-1.31,1.34,0,2,0,4,0,6,0,5.33,1.76,7.07,7.12,7.07H159.09a22.94,22.94,0,0,1,2.49,0,2.88,2.88,0,0,1,2.54,2.13,3,3,0,0,1-.7,3.08,3.67,3.67,0,0,1-3,1c-10.28,0-20.55,0-30.82,0-1.29,0-1.8.27-1.78,1.7q.12,9.36,0,18.73c0,1.4.43,1.74,1.76,1.72,4.44-.08,8.89,0,13.33,0a6.59,6.59,0,0,1,5.73,2.84c2.3,3.38,2.23,7.15.74,10.73-1.4,3.35-4.45,4.22-7.91,4.21q-26.64-.06-53.29,0c-5.76,0-11.52,0-17.28,0-4.37,0-7.33-2.63-7.78-6.82a18.17,18.17,0,0,1,0-4.36,7.16,7.16,0,0,1,7.51-6.56c4.09,0,8.19-.11,12.28,0,1.93.07,2.6-.33,2.54-2.44-.17-5.68-.17-11.38,0-17.07.07-2.19-.57-2.69-2.71-2.68q-35.61.12-71.2,0A11.32,11.32,0,0,1,0,158.3Q0,93.44,0,28.59a9.23,9.23,0,0,1,6.48-9,15.67,15.67,0,0,1,4.73-.53q78.18,0,156.35,0a5.49,5.49,0,0,0,4.33-1.82c4.94-5.07,10-10,15-15,3-3,6.93-3.07,10-.13,2.26,2.16,4.47,4.36,6.62,6.63a6.39,6.39,0,0,1,1.41,7.46,25,25,0,0,1-1.7,2.8C208.37,19.21,211.53,21.9,213.21,26.5Zm-49.92-.41-.3-.56H10.82c-3.75,0-4.59.87-4.59,4.69q0,55.07,0,110.14c0,1.84.38,2.42,2.35,2.42q98.06-.09,196.12,0c2,0,2.35-.57,2.35-2.41q-.09-55.07,0-110.14a13.11,13.11,0,0,0,0-1.66c-.26-1.79-1.18-2.95-3.11-3a40.87,40.87,0,0,1-4.57-.06c-3.79-.54-5,2.53-7.54,4.73h3.14c5.86,0,7.43,1.55,7.43,7.35q0,46.74,0,93.48c0,5.19-1.81,7-7,7H18.11c-5.47,0-7.2-1.73-7.2-7.21q0-46.74,0-93.48A17.18,17.18,0,0,1,11,34.89c.4-2.7,2.26-4.59,4.82-4.61,7.49-.07,15,0,22.48,0a2.91,2.91,0,0,1,3.07,2.55c.42,2-1.08,3.66-3.43,3.67-6.24,0-12.49.05-18.74,0-1.39,0-1.91.28-1.91,1.81q.06,45.8,0,91.61c0,1.37.29,1.94,1.82,1.94,14.58-.05,29.15,0,43.73,0,.68,0,1.38.1,1.82-.67,1.32-2.33,2.68-4.64,4.22-7.3H30.7c-4.94,0-6.85-1.88-6.85-6.76q0-32.79,0-65.58c0-5.68,2.92-8.61,8.59-8.62H83.66c5.6,0,8.41,2.86,8.42,8.48,0,9.79,0,19.57,0,29.36A3.34,3.34,0,0,0,92.47,83c2.12-3.66,4.12-7.13,6.14-10.6,2.88-4.93,7.69-5,10.54-.05q5,8.54,9.89,17.1c5.33,9.23,10.66,18.47,16.12,27.91l4.79-8.25c5.2-9,10.37-18,15.6-27,2.3-3.94,7.3-4.43,9.55-.78,3.7,6,7.14,12.2,10.62,18.35a3.12,3.12,0,0,1-5.34,3.2c-.78-1.14-1.41-2.39-2.11-3.58L160.58,86c-6.12,10.6-12.12,21-18.11,31.36-1.2,2.1-3.23,4.24-3.23,6.36s2.13,4.22,3.23,6.37a2.85,2.85,0,0,0,2.91,1.75c13.19-.07,26.38,0,39.56-.06.57,0,1.24.29,1.77-.35-.14-.31-.26-.63-.43-.93-2.8-4.86-5.62-9.71-8.4-14.59-1.19-2.09-.85-3.89.84-4.86s3.36-.41,4.63,1.74c2,3.47,4,7,6,10.43l4.36,7.57c.32.56.65,1.1,1.42,1,1-.15.62-.93.69-1.48a10.43,10.43,0,0,0,0-1.25V39.27c0-.62,0-1.25,0-1.87,0-.44-.09-.88-.64-.88-3.2,0-6.39,0-9.58,0-.23,0-.48.25-.67.44-3.38,3.34-6.76,6.7-10.21,10.12,6.32,3.45,9.58,8.36,8.43,15.45a12.89,12.89,0,0,1-10,11.06c-7.66,2-13.1-1.32-16.89-8.12-2.82,2.86-5.52,5.55-8.17,8.3a12.61,12.61,0,0,1-4.43,3Q136.1,79.86,128.53,83c-2,.82-3.81.85-5.36-.77s-1.37-3.34-.59-5.22q3.19-7.66,6.28-15.38a12.15,12.15,0,0,1,2.77-4.09q9.6-9.53,19.14-19.13a4.44,4.44,0,0,0,1.51-1.92H53.78c-2.57,0-4.07-1.18-4.07-3.14s1.45-3.1,4.07-3.1H72.52q42.26,0,84.53,0c.87,0,1.76.22,2.52-.58C160.75,28.4,162,27.27,163.29,26.09ZM58.15,67.62c-8.6,0-17.2,0-25.8,0-1.58,0-2.12.35-2.11,2q.09,22.89,0,45.77c0,1.47.28,2,1.91,2q25.91-.09,51.8,0c1.42,0,1.88-.34,1.88-1.82q-.09-23.1,0-46.18c0-1.52-.5-1.82-1.9-1.81C75.34,67.65,66.74,67.62,58.15,67.62Zm13.56,64H136.1l-15.5-26.84c-.33.47-.49.69-.64.92-3,4.57-8,4.44-10.83-.29-.67-1.13-1.33-2.27-2-3.41-1.45-2.5-1.54-2.51-2.93-.1s-2.65,4.55-3.93,6.85c-1.54,2.75-3.69,4.28-7,3.58-.93-.19-1.26.12-1.23,1.05,0,1.46,0,2.92,0,4.37,0,4.05-2,6-6,6.06-2.78,0-5.55,0-8.33,0-.75,0-1.51-.12-2,.74C74.49,126.84,73.16,129.09,71.71,131.61Zm34.71,60.22c4.5,0,9,0,13.51,0,1.28,0,1.65-.37,1.64-1.65q-.09-9.45,0-18.91c0-1.34-.5-1.59-1.7-1.58q-13.29.06-26.6,0c-1.27,0-1.65.38-1.64,1.65.06,6.23.08,12.47,0,18.7,0,1.53.54,1.82,1.92,1.8C97.83,191.78,102.12,191.83,106.42,191.83ZM58,61.2c8.67,0,17.34,0,26,0,1.31,0,1.84-.3,1.79-1.72-.11-2.77-.1-5.55,0-8.33,0-1.48-.56-1.93-2-1.93q-25.82,0-51.63,0c-1.58,0-2,.61-2,2.1.09,2.63.11,5.28,0,7.91-.07,1.55.41,2,2,2C40.82,61.16,49.42,61.2,58,61.2Zm86.6,7c.46-.42.88-.77,1.26-1.16l14.73-14.72c6.48-6.47,12.92-13,19.46-19.4,1.27-1.24,1.25-1.93,0-3.05-1.73-1.51-3.3-3.19-4.88-4.85-.69-.72-1.15-.95-2-.11Q155.7,42.51,138.14,60c-.65.64-.89,1.08-.1,1.83,2,1.86,3.84,3.81,5.76,5.72C144,67.78,144.32,68,144.63,68.23Zm-38,134.94c11.59,0,23.17,0,34.75,0,1.94,0,2.51-.57,2.47-2.47s-.3-2.73-2.49-2.73q-34.75.12-69.51,0c-2.23,0-2.41,1-2.47,2.75-.06,2,.61,2.46,2.5,2.45C83.44,203.13,95,203.17,106.61,203.17Zm8-101.23c2.36-2.19,2.45-4.44.44-6.88a19.22,19.22,0,0,1-1.68-2.85L103.9,75.85C100.36,82,97.11,88,93.45,93.78a9.76,9.76,0,0,0,1.36,11.76c1.53-2.65,3-5.29,4.59-7.9,3.16-5.29,9.35-5.28,12.55,0A29.59,29.59,0,0,0,114.6,101.94Zm62.48-41.76a7.6,7.6,0,0,0-5.43-7.3,3,3,0,0,0-3.53.89A69.37,69.37,0,0,1,163,58.91a3,3,0,0,0-.82,3.55,7.7,7.7,0,0,0,8.79,5.28A7.6,7.6,0,0,0,177.08,60.18ZM192,6.38a6.75,6.75,0,0,0-.73.52c-1.82,1.81-3.6,3.65-5.45,5.42-.73.69-.23,1,.21,1.48,1.91,1.9,3.86,3.78,5.71,5.75.75.79,1.16.59,1.8-.08,1.57-1.65,3.19-3.27,4.84-4.85.78-.73.84-1.26,0-2C196.56,10.83,194.78,9,193,7.18A11.49,11.49,0,0,0,192,6.38ZM130,75.53,138.61,72l-4.93-5.38C132.51,69.47,131.4,72.2,130,75.53ZM186.2,27.07c.51-.62,1-1.19,1.47-1.8s-.17-1-.52-1.36c-1.84-1.88-3.75-3.69-5.55-5.61-.89-.93-1.36-.41-2,.23s-1.12,1.07-.17,1.94c2,1.83,3.85,3.8,5.76,5.71C185.43,26.41,185.69,26.62,186.2,27.07Z"/><path d="M106.49,159.2c-2.29,0-4.58.05-6.86,0s-3.66-1.32-3.69-3.14,1.41-3.21,3.59-3.24q7.06-.1,14.14,0c2.18,0,3.62,1.44,3.58,3.25s-1.46,3.08-3.69,3.13S108.85,159.2,106.49,159.2Z"/><path d="M68.67,86.48c-3.12,0-6.24,0-9.36,0a2.13,2.13,0,0,0-2.12,1.21c-3.72,6-11.44,6-15.16,0a2,2,0,0,0-2.14-1.15,17.52,17.52,0,0,1-2.71,0,3,3,0,0,1-2.85-3,3.08,3.08,0,0,1,2.93-3.17,3.29,3.29,0,0,1,.83,0,4.39,4.39,0,0,0,4.72-2.19c3.49-5,10.95-4.54,14.18.71a2.79,2.79,0,0,0,2.8,1.5c6-.06,12.07,0,18.1,0,2.47,0,3.77,1.12,3.76,3.15s-1.32,3.07-3.82,3.09C74.77,86.5,71.72,86.48,68.67,86.48Zm-18.89-.74A2.23,2.23,0,0,0,52,83.27a2.41,2.41,0,0,0-4.82.17C47.23,84.82,48.09,85.7,49.78,85.74Z"/><path d="M47.16,98.14c1.94,0,3.89,0,5.83,0,2.8.08,5,0,7.16-2.86,3.37-4.5,10.45-3.57,13.44,1.3a2.73,2.73,0,0,0,3,1.56,13.13,13.13,0,0,1,2.08,0,3.11,3.11,0,0,1,.1,6.21,6.48,6.48,0,0,1-1.46,0,3.69,3.69,0,0,0-4,2A8.52,8.52,0,0,1,59,105.93a2.9,2.9,0,0,0-3-1.56c-5.82,0-11.64,0-17.47,0-2.75,0-4.25-1.16-4.21-3.19s1.51-3,4.13-3.06Zm19,5.52a2.27,2.27,0,0,0,2.5-2.28,2.18,2.18,0,0,0-2.19-2.48,2.21,2.21,0,0,0-2.63,2.25A2.28,2.28,0,0,0,66.18,103.66Z"/><path d="M62,57.72a3.15,3.15,0,0,1-3.2-3.12A3.19,3.19,0,0,1,62,51.51a3.11,3.11,0,0,1,0,6.21Z"/><path d="M82.37,54.63a3.17,3.17,0,0,1-3.23,3.09,3.11,3.11,0,0,1,0-6.21A3.2,3.2,0,0,1,82.37,54.63Z"/><path d="M70.61,51.51a3.11,3.11,0,1,1-.17,6.21,3.11,3.11,0,0,1,.17-6.21Z"/></g></g></svg>